<svg fill="none" viewBox="0 0 72 96" xmlns="http://www.w3.org/2000/svg"><path fill="#d3d6fd" d="M72 29.3v60.3c0 2.24 0 3.36-.44 4.22-.38.74-1 1.36-1.74 1.74-.86.44-1.98.44-4.22.44H6.4c-2.24 0-3.36 0-4.22-.44-.74-.38-1.36-1-1.74-1.74C0 92.96 0 91.84 0 89.6V6.4c0-2.24 0-3.36.44-4.22.38-.74 1-1.36 1.74-1.74C3.04 0 4.16 0 6.4 0h36.3c1.96 0 2.94 0 3.86.22.5.12.98.28 1.44.5V17.6c0 2.24 0 3.36.44 4.22.38.74 1 1.36 1.74 1.74.86.44 1.98.44 4.22.44h16.88c.22.46.38.94.5 1.44.22.92.22 1.9.22 3.86z"/><path fill="#939bf9" d="M68.26 20.26c1.38 1.38 2.06 2.06 2.56 2.88.18.28.32.56.46.86H54.4c-2.24 0-3.36 0-4.22-.44-.74-.38-1.36-1-1.74-1.74-.44-.86-.44-1.98-.44-4.22V.72c.3.14.58.28.86.46.82.5 1.5 1.18 2.88 2.56z"/><path fill="#5865f2" fill-rule="evenodd" d="M24 24a8 8 0 0 0 7.72-10.08L28 0h-8l-3.72 13.92A8 8 0 0 0 24 24zm0-4a4 4 0 1 0 0-8 4 4 0 0 0 0 8zm0 20v-8h-8v8zm0 8h8v-8h-8zm0 8v-8h-8v8zm0 8h8v-8h-8zm0 8v-8h-8v8zm0 8h8v-8h-8zm0 8h-8v-8h8zm0 0h8v8h-8z" clip-rule="evenodd"/></svg>