<svg fill="none" viewBox="0 0 72 96" xmlns="http://www.w3.org/2000/svg"><path fill="#d3d6fd" d="M72 29.3v60.3c0 2.24 0 3.36-.44 4.22-.38.74-1 1.36-1.74 1.74-.86.44-1.98.44-4.22.44H6.4c-2.24 0-3.36 0-4.22-.44-.74-.38-1.36-1-1.74-1.74C0 92.96 0 91.84 0 89.6V6.4c0-2.24 0-3.36.44-4.22.38-.74 1-1.36 1.74-1.74C3.04 0 4.16 0 6.4 0h36.3c1.96 0 2.94 0 3.86.22.5.12.98.28 1.44.5V17.6c0 2.24 0 3.36.44 4.22.38.74 1 1.36 1.74 1.74.86.44 1.98.44 4.22.44h16.88c.22.46.38.94.5 1.44.22.92.22 1.9.22 3.86z"/><path fill="#939bf9" d="M68.26 20.26c1.38 1.38 2.06 2.06 2.56 2.88.18.28.32.56.46.86H54.4c-2.24 0-3.36 0-4.22-.44-.74-.38-1.36-1-1.74-1.74-.44-.86-.44-1.98-.44-4.22V.72c.3.14.58.28.86.46.82.5 1.5 1.18 2.88 2.56z"/><path fill="#5865f2" fill-rule="evenodd" d="M23.7 40.46a5.86 5.86 0 0 1 1.98-.42c.62-.04 1.38-.04 2.26-.04H28v4c-.96 0-1.58 0-2.04.02-.46.04-.64.08-.72.12-.48.2-.88.6-1.08 1.08-.04.1-.08.26-.12.72-.04.48-.04 1.1-.04 2.06v6.06c0 .88 0 1.64-.04 2.26A5.65 5.65 0 0 1 22.44 60a5.65 5.65 0 0 1 1.52 3.68c.04.62.04 1.38.04 2.26V72c0 .96 0 1.58.02 2.04.04.46.08.64.12.72.2.48.6.88 1.08 1.08.1.04.26.08.72.12.48.04 1.1.04 2.06.04v4h-.06c-.88 0-1.64 0-2.26-.04a5.92 5.92 0 0 1-5.64-5.64C20 73.7 20 72.94 20 72.06V66c0-.96 0-1.58-.02-2.04a2.44 2.44 0 0 0-.12-.72c-.2-.48-.6-.88-1.08-1.08-.1-.04-.26-.08-.72-.12C17.58 62 16.96 62 16 62v-4c.96 0 1.58 0 2.04-.02.46-.04.64-.08.72-.12.48-.2.88-.58 1.08-1.08.04-.1.08-.26.12-.72.04-.48.04-1.1.04-2.06v-6.06c0-.88 0-1.64.04-2.26a5.92 5.92 0 0 1 3.66-5.22zm29.52 17.38c.1.04.26.08.72.12.48.04 1.1.04 2.06.04v4c-.96 0-1.58 0-2.04.02-.46.04-.64.08-.72.12-.48.2-.88.6-1.08 1.08-.04.1-.08.26-.12.72-.04.48-.04 1.1-.04 2.06v6.06c0 .88 0 1.64-.04 2.26a6.38 6.38 0 0 1-.42 1.98 5.86 5.86 0 0 1-5.22 3.66c-.62.04-1.38.04-2.26.04H44v-4c.96 0 1.58 0 2.04-.02.46-.04.64-.08.72-.12.48-.2.88-.58 1.08-1.08.04-.1.08-.26.12-.72.04-.48.04-1.1.04-2.06v-6.06c0-.88 0-1.64.04-2.26.06-.66.16-1.32.42-1.98.26-.64.64-1.2 1.1-1.7a5.65 5.65 0 0 1-1.52-3.68C48 55.7 48 54.94 48 54.06V48c0-.96 0-1.58-.02-2.04a2.44 2.44 0 0 0-.12-.72c-.2-.48-.6-.88-1.08-1.08-.1-.04-.26-.08-.72-.12C45.58 44 44.96 44 44 44v-4h.06c.88 0 1.64 0 2.26.04a5.92 5.92 0 0 1 5.64 5.64c.04.62.04 1.38.04 2.26V54c0 .96 0 1.58.02 2.04.04.46.08.64.12.72.2.48.6.88 1.08 1.08z" clip-rule="evenodd"/></svg>