<svg xmlns="http://www.w3.org/2000/svg" xmlns:xlink="http://www.w3.org/1999/xlink" fill="none" viewBox="0 0 72 96"><defs><path id="a" d="M0 0h72v96H0z"/></defs><clipPath id="b"><use xlink:href="#a"/></clipPath><clipPath id="c"><use xlink:href="#a"/></clipPath><clipPath id="d"><path d="M12 36h48v48H12z"/></clipPath><g clip-path="url(#b)"><g clip-path="url(#c)"><path fill="#d3d6fd" d="M72 29.3v60.3c0 2.24 0 3.36-.44 4.22-.38.74-1 1.36-1.74 1.74-.86.44-1.98.44-4.22.44H6.4c-2.24 0-3.36 0-4.22-.44-.74-.38-1.36-1-1.74-1.74C0 92.96 0 91.84 0 89.6V6.4c0-2.24 0-3.36.44-4.22.38-.74 1-1.36 1.74-1.74C3.04 0 4.16 0 6.4 0h36.3c1.96 0 2.94 0 3.86.22.5.12.98.28 1.44.5V17.6c0 2.24 0 3.36.44 4.22.38.74 1 1.36 1.74 1.74.86.44 1.98.44 4.22.44h16.88c.22.46.38.94.5 1.44.22.92.22 1.9.22 3.86z"/><path fill="#939bf9" d="M68.26 20.26c1.38 1.38 2.06 2.06 2.56 2.88.18.28.32.56.46.86H54.4c-2.24 0-3.36 0-4.22-.44-.74-.38-1.36-1-1.74-1.74-.44-.86-.44-1.98-.44-4.22V.72c.3.14.58.28.86.46.82.5 1.5 1.18 2.88 2.56z"/></g><g fill="#5865f2" clip-path="url(#d)"><path d="M24 56a8 8 0 1 0 0-16 8 8 0 0 0 0 16zm20 0L33.65 71.53 28 64 16 80h40z"/></g></g></svg>
